<svg xmlns="http://www.w3.org/2000/svg" viewBox="0 0 194 25">
    <path fill="#000"
        d="M178.26848,14.111968 L181.40096,6.46672 L184.53344,14.111968 L178.26848,14.111968 Z M168.972544,23.98032 L174.260736,23.98032 L176.416032,18.69296 L186.385472,18.69296 L188.541184,23.98032 L193.963744,23.98032 L183.85952,0.235872 L179.076768,0.235872 L168.972544,23.98032 Z M144.386112,23.98032 L149.505824,23.98032 L149.505824,8.992672 L160.92336,23.98032 L165.335456,23.98032 L165.335456,0.404352 L160.21616,0.404352 L160.21616,14.920256 L149.168864,0.404352 L144.386112,0.404352 L144.386112,23.98032 Z M125.054176,14.111968 L128.18624,6.46672 L131.31872,14.111968 L125.054176,14.111968 Z M115.75824,23.98032 L121.046016,23.98032 L123.201728,18.69296 L133.171168,18.69296 L135.326464,23.98032 L140.74944,23.98032 L130.645216,0.235872 L125.862464,0.235872 L115.75824,23.98032 Z M106.698176,23.98032 L111.884864,23.98032 L111.884864,0.404352 L106.698176,0.404352 L106.698176,23.98032 Z M93.293408,24.31728 C98.379424,24.31728 101.949536,21.69024 101.949536,17.008576 L101.949536,16.941184 C101.949536,12.832352 99.255104,11.114272 94.472352,9.868352 C90.397216,8.824192 89.386752,8.319168 89.386752,6.769984 L89.386752,6.702176 C89.386752,5.557344 90.430496,4.647968 92.417728,4.647968 C94.40496,4.647968 96.459584,5.523648 98.547904,6.971744 L101.24192,3.065088 C98.850752,1.145248 95.920448,0.067392 92.48512,0.067392 C87.669088,0.067392 84.23376,2.896608 84.23376,7.17392 L84.23376,7.241312 C84.23376,11.922976 87.298432,13.236704 92.047488,14.448928 C95.98784,15.459392 96.796128,16.132896 96.796128,17.446624 L96.796128,17.514016 C96.796128,18.89472 95.516512,19.736704 93.394496,19.736704 C90.70048,19.736704 88.477376,18.625568 86.35536,16.874208 L83.290272,20.544992 C86.119904,23.070944 89.723296,24.31728 93.293408,24.31728 L93.293408,24.31728 Z M73.826688,23.98032 L79.01296,23.98032 L79.01296,0.404352 L73.826688,0.404352 L73.826688,23.98032 Z M57.962944,24.350976 C64.29488,24.350976 68.30304,20.84784 68.30304,13.708032 L68.30304,0.404352 L63.115936,0.404352 L63.115936,13.910208 C63.115936,17.6488 61.196512,19.568224 58.030336,19.568224 C54.864576,19.568224 52.944736,17.581408 52.944736,13.741312 L52.944736,0.404352 L47.758048,0.404352 L47.758048,13.876512 C47.758048,20.81456 51.631424,24.350976 57.962944,24.350976 L57.962944,24.350976 Z M31.01904,19.60192 C26.842816,19.60192 23.878816,16.233984 23.878816,12.192128 L23.878816,12.125152 C23.878816,8.083296 26.775424,4.782752 30.952064,4.782752 C35.128288,4.782752 38.092288,8.150688 38.092288,12.192128 L38.092288,12.25952 C38.092288,16.301376 35.19568,19.60192 31.01904,19.60192 L31.01904,19.60192 Z M30.952064,24.384672 C38.226656,24.384672 43.514432,18.89472 43.514432,12.192128 L43.514432,12.125152 C43.514432,5.42256 38.294048,-1.77635684e-15 31.01904,-1.77635684e-15 C23.744032,-1.77635684e-15 18.456256,5.489952 18.456256,12.192128 L18.456256,12.25952 C18.456256,18.962112 23.677056,24.384672 30.952064,24.384672 L30.952064,24.384672 Z M7.10542736e-14,23.98032 L16.941184,23.98032 L16.941184,19.265376 L5.186688,19.265376 L5.186688,0.404352 L7.10542736e-14,0.404352 L7.10542736e-14,23.98032 Z">
    </path>
</svg>