<?xml version="1.0" encoding="utf-8"?>
<!-- Generator: Adobe Illustrator 25.4.1, SVG Export Plug-In . SVG Version: 6.00 Build 0)  -->
<svg version="1.1" id="Layer_1" xmlns="http://www.w3.org/2000/svg" xmlns:xlink="http://www.w3.org/1999/xlink" x="0px" y="0px"
	 viewBox="0 0 52 6.5" style="enable-background:new 0 0 52 6.5;" xml:space="preserve">
<path d="M47.8,3.8l0.8-2l0.8,2H47.8z M45.3,6.4h1.4L47.3,5H50l0.6,1.4H52l-2.7-6.4H48L45.3,6.4z M38.7,6.4h1.4v-4l3.1,4h1.2V0.1
	h-1.4V4l-3-3.9h-1.3V6.4z M33.5,3.8l0.8-2l0.8,2H33.5z M31,6.4h1.4L33,5h2.7l0.6,1.4h1.5L35,0.1h-1.3L31,6.4z M28.6,6.4H30V0.1h-1.4
	V6.4z M25,6.5c1.4,0,2.3-0.7,2.3-2v0c0-1.1-0.7-1.6-2-1.9C24.2,2.4,24,2.2,24,1.8v0c0-0.3,0.3-0.6,0.8-0.6c0.5,0,1.1,0.2,1.6,0.6
	l0.7-1C26.5,0.3,25.7,0,24.8,0c-1.3,0-2.2,0.8-2.2,1.9v0c0,1.3,0.8,1.6,2.1,1.9c1.1,0.3,1.3,0.5,1.3,0.8v0c0,0.4-0.3,0.6-0.9,0.6
	c-0.7,0-1.3-0.3-1.9-0.8l-0.8,1C23.1,6.2,24,6.5,25,6.5L25,6.5z M19.8,6.4h1.4V0.1h-1.4V6.4z M15.5,6.5c1.7,0,2.8-0.9,2.8-2.9V0.1
	h-1.4v3.6c0,1-0.5,1.5-1.4,1.5c-0.8,0-1.4-0.5-1.4-1.6V0.1h-1.4v3.6C12.8,5.6,13.8,6.5,15.5,6.5L15.5,6.5z M8.3,5.3
	c-1.1,0-1.9-0.9-1.9-2v0c0-1.1,0.8-2,1.9-2c1.1,0,1.9,0.9,1.9,2v0C10.2,4.4,9.4,5.3,8.3,5.3L8.3,5.3z M8.3,6.5
	c1.9,0,3.4-1.5,3.4-3.3v0c0-1.8-1.4-3.2-3.3-3.2S4.9,1.5,4.9,3.3v0C4.9,5.1,6.3,6.5,8.3,6.5L8.3,6.5z M0,6.4h4.5V5.2H1.4V0.1H0V6.4z
	"/>
</svg>
